<svg width="989" height="1056" viewBox="0 0 989 1056" fill="none" xmlns="http://www.w3.org/2000/svg">
<path d="M650.143 140.773C650.011 113.159 627.52 90.9292 599.906 91.1207L462.597 92.0731C434.983 92.2647 412.704 114.805 412.836 142.419L413.475 276.666C413.606 304.28 436.098 326.51 463.711 326.319L601.021 325.366C628.634 325.175 650.913 302.634 650.782 275.02L650.143 140.773Z" fill="#D9D9D9"/>
<path d="M775.479 901.638L736.268 894.112L741.626 865.568L749.866 836.789L757.901 814.72L769.32 791.038C773.095 786.046 774.903 780.868 781.63 772.96C786.107 767.696 789.292 764.994 798.812 759.196L790.607 653.446L783.604 600.473L771.525 549.919L761.601 517.26L747.213 487.641L730.669 460.875L711.038 441.051L684.062 424.501L654.072 416.227L659.841 374.263L676.128 375.612L693.79 380.854L725.448 398.313L746.621 414.62L765.218 436.653L777.933 457.038L792.171 483.992L803.1 513.892L813.025 546.55L823.951 597.198L830.378 650.218L838.582 755.967L839.607 753.566L856.412 764.219L864.386 772.251L871.207 780.376L876.839 787.93L883.269 799.425L896.267 824.906L918.405 879.328L878.726 894.596L877.128 886.694L867.76 864.03L855.789 836.223L848.019 821.46L839.171 808.123L829.969 798.831L820.524 795.582L811.636 802.327L800.496 820.632L788.37 852.404L781.097 877.757L777.191 890.791L775.479 901.638Z" fill="#D9D9D9" stroke="black"/>
<path d="M312.272 872.422L351.484 864.897L346.126 836.352L337.885 807.573L329.851 785.504L318.432 761.822C314.657 756.831 312.848 751.652 306.122 743.744C301.645 738.48 298.459 735.778 288.939 729.98L288.939 666.275L304.147 571.257L316.226 520.703L326.151 488.044L340.538 458.425L357.082 431.659L376.714 411.835L403.69 395.285L433.679 387.011L427.91 345.047L411.623 346.396L393.962 351.639L362.303 369.097L341.13 385.404L322.534 407.437L309.819 427.822L295.58 454.776L284.651 484.676L274.727 517.334L263.8 567.982L257.374 621.002L249.169 726.751L248.145 724.35L231.34 735.003L223.366 743.035L216.544 751.16L210.913 758.714L204.483 770.21L191.484 795.69L169.347 850.112L209.026 865.38L210.624 857.478L219.992 834.814L231.962 807.007L239.732 792.244L248.581 778.907L257.783 769.615L267.228 766.366L276.116 773.111L287.255 791.417L299.382 823.188L306.654 848.541L310.561 861.575L312.272 872.422Z" fill="#D9D9D9" stroke="black"/>
<path d="M455.617 694.631C481.171 772.714 591.631 772.714 617.185 694.631L702.796 433.036C720.78 378.082 679.834 321.598 622.012 321.598H450.79C392.968 321.598 352.022 378.082 370.006 433.036L455.617 694.631Z" fill="#D9D9D9"/>
<path fill-rule="evenodd" clip-rule="evenodd" d="M420.04 335.838C474.393 335.829 468.882 257.837 407.763 161.639C346.596 65.4002 291.718 72.6051 237.365 72.6138C221.793 73.8738 218.474 73.4201 210.908 161.624L362.356 399.379L177.977 251.853C83.219 211.517 18.0503 337.692 44.4799 430.482C77.6407 477.158 94.5035 484.94 189.261 525.276C284.019 565.612 347.089 547.691 330.228 485.305C328.736 479.963 326.739 474.418 324.26 468.736L437.205 516.855L653.928 732.511C673.269 749.452 666.454 742.697 663.162 739.433C662.38 738.659 661.797 738.081 661.81 738.063C661.846 738.011 667.021 742.795 687.397 761.634L687.403 761.64L691.348 765.288C700.501 773.75 709.706 782.395 718.788 790.925L718.79 790.927C736.385 807.452 753.521 823.546 768.929 837.042L834.203 853.324L865.43 861.113L821.469 749.604C805.07 731.912 760.87 694.614 726.943 665.985C713.284 654.459 701.29 644.338 693.447 637.468L478.081 448.828L405.142 334.13C410.367 335.24 415.333 335.809 420.04 335.838ZM280.169 81.8558C265.314 69.4994 262.709 78.5819 256.209 78.5797C250.366 78.5792 240.229 114.38 237.365 72.6138C235.064 87.2624 242.446 118.376 269.967 161.685C289.455 192.347 314.424 221.424 338.469 241.461C353.324 253.818 366.054 261.201 372.554 261.203C378.397 261.204 380.518 255.487 381.274 250.703C383.575 236.055 376.192 204.941 348.671 161.633C329.184 130.97 304.214 101.894 280.169 81.8558ZM149.432 332.602C106.792 314.455 105.616 332.089 94.7489 339.234C93.3204 350.75 83.4131 372.676 83.4131 372.676C85.4321 380.135 72.4253 390.389 86.7644 403.604C110.004 424.983 140.695 444.659 170.837 457.468C213.477 475.614 240.218 474.389 251.086 467.245C254.617 464.893 258.445 460.711 256.647 453.978C254.628 446.518 252.092 414.854 237.753 401.639C210.377 355.043 179.575 345.411 149.432 332.602ZM425.196 468.938C422.22 462.492 421.749 456.872 423.886 453.315C426.024 449.758 430.595 448.554 436.594 449.97C442.593 451.385 449.529 455.303 455.875 460.862C462.222 466.421 467.459 473.166 470.435 479.612C473.411 486.058 473.883 491.678 471.745 495.235C469.608 498.792 465.037 499.995 459.038 498.58C453.039 497.164 446.103 493.246 439.757 487.687C433.41 482.128 428.173 475.384 425.196 468.938Z" fill="black"/>
<ellipse cx="157.209" cy="111.915" rx="157.209" ry="111.915" transform="matrix(-1 0 0 1 678.84 717.621)" fill="#D9D9D9"/>
</svg>
