<svg width="654" height="752" viewBox="0 0 654 752" fill="none" xmlns="http://www.w3.org/2000/svg">
<path fill-rule="evenodd" clip-rule="evenodd" d="M376.238 238.911C340.296 238.905 343.94 183.422 384.357 114.988C424.805 46.5249 461.095 51.6504 497.037 51.6566C507.334 52.5529 509.528 52.2302 514.532 114.977L414.383 284.114L536.308 179.166C598.969 150.471 642.064 240.23 624.586 306.24C602.658 339.445 591.507 344.981 528.846 373.675C466.186 402.37 424.479 389.621 435.629 345.241C436.615 341.44 437.936 337.496 439.575 333.454L364.888 367.685L221.574 521.1C208.785 533.152 213.291 528.346 215.468 526.024C215.985 525.473 216.37 525.062 216.362 525.05C216.338 525.013 212.916 528.416 199.442 541.818L199.438 541.822L196.829 544.417C190.777 550.437 184.69 556.587 178.684 562.655L178.683 562.656C167.047 574.412 155.716 585.862 145.527 595.463L102.363 607.045L81.7135 612.586L110.783 533.26C121.628 520.674 150.856 494.14 173.291 473.774C182.324 465.575 190.255 458.375 195.442 453.487L337.857 319.291L386.09 237.696C382.635 238.486 379.351 238.891 376.238 238.911ZM468.731 58.2312C478.554 49.441 480.277 55.9022 484.575 55.9006C488.439 55.9002 495.143 81.3684 497.037 51.6566C498.558 62.0774 493.676 84.2115 475.477 115.02C462.591 136.833 446.079 157.518 430.179 171.773C420.356 180.563 411.938 185.815 407.64 185.817C403.775 185.817 402.373 181.75 401.873 178.347C400.352 167.927 405.234 145.792 423.433 114.983C436.319 93.1707 452.831 72.4859 468.731 58.2312ZM555.184 236.609C583.381 223.7 584.158 236.244 591.345 241.327C592.289 249.519 598.841 265.117 598.841 265.117C597.506 270.424 606.107 277.718 596.625 287.119C581.257 302.328 560.962 316.326 541.03 325.438C512.833 338.347 495.15 337.475 487.963 332.392C485.628 330.719 483.097 327.745 484.286 322.955C485.621 317.648 487.298 295.122 496.78 285.722C514.883 252.574 535.252 245.721 555.184 236.609ZM372.829 333.597C374.797 329.011 375.108 325.014 373.695 322.483C372.281 319.952 369.259 319.097 365.292 320.103C361.325 321.11 356.738 323.898 352.541 327.852C348.345 331.807 344.881 336.605 342.913 341.19C340.945 345.776 340.633 349.774 342.047 352.304C343.46 354.835 346.483 355.691 350.45 354.684C354.417 353.677 359.003 350.89 363.2 346.935C367.397 342.981 370.86 338.183 372.829 333.597Z" fill="black"/>
<path d="M224.013 114.577C224.136 86.9627 246.62 64.7442 274.233 64.9502L331.161 65.375C358.774 65.5811 381.061 88.1337 380.938 115.748L380.644 182.388C380.521 210.002 358.037 232.221 330.424 232.015L273.496 231.59C245.883 231.384 223.597 208.831 223.719 181.217L224.013 114.577Z" fill="#D9D9D9"/>
<path d="M141.392 620.633L167.322 615.279L163.779 594.973L158.33 574.5L153.016 558.8L145.465 541.953C142.969 538.402 141.773 534.718 137.325 529.092C134.364 525.348 132.258 523.426 125.963 519.301L131.389 444.072L136.019 406.387L144.007 370.424L150.57 347.191L160.084 326.12L171.024 307.079L184.006 292.976L201.844 281.203L221.675 275.317L217.861 245.464L207.091 246.424L195.411 250.153L174.476 262.573L160.475 274.174L148.178 289.848L139.77 304.349L130.354 323.524L123.127 344.794L116.564 368.027L109.339 404.057L105.089 441.776L99.6637 517.004L98.9864 515.296L87.8738 522.874L82.6007 528.588L78.0899 534.368L74.3659 539.742L70.1139 547.92L61.5182 566.046L46.8794 604.762L73.118 615.623L74.1747 610.002L80.3695 593.879L88.2852 574.097L93.4233 563.595L99.2746 554.107L105.36 547.497L111.605 545.186L117.483 549.984L124.849 563.006L132.868 585.608L137.677 603.644L140.26 612.916L141.392 620.633Z" fill="#D9D9D9" stroke="black"/>
<path d="M447.502 620.633L421.573 615.279L425.116 594.973L430.565 574.5L435.878 558.8L443.429 541.953C445.926 538.402 447.121 534.718 451.57 529.092C454.53 525.348 456.636 523.426 462.932 519.301L462.932 473.982L452.875 406.387L444.888 370.424L438.325 347.191L428.811 326.12L417.871 307.079L404.889 292.976L387.05 281.203L367.219 275.317L371.034 245.464L381.804 246.424L393.483 250.153L414.418 262.573L428.419 274.174L440.717 289.848L449.125 304.349L458.54 323.524L465.767 344.794L472.33 368.027L479.555 404.057L483.805 441.776L489.231 517.004L489.908 515.296L501.021 522.874L506.294 528.588L510.805 534.368L514.529 539.742L518.781 547.92L527.376 566.046L542.015 604.762L515.777 615.623L514.72 610.002L508.525 593.879L500.609 574.097L495.471 563.595L489.62 554.107L483.535 547.497L477.289 545.186L471.412 549.984L464.045 563.006L456.027 585.608L451.217 603.644L448.634 612.916L447.502 620.633Z" fill="#D9D9D9" stroke="black"/>
<path d="M380.612 402.44C356.169 482.788 242.414 482.788 217.971 402.44L198.526 338.52C181.915 283.915 222.771 228.781 279.847 228.781H318.737C375.812 228.781 416.669 283.915 400.057 338.52L380.612 402.44Z" fill="#D9D9D9"/>
<path d="M372.677 240.028H231.706C217.133 240.028 205.274 254.787 205.274 272.925V283.89C205.274 286.588 206.366 349.684 302.191 349.684C398.016 349.684 399.108 286.588 399.108 283.89V272.925C399.108 254.787 387.249 240.028 372.677 240.028ZM381.487 283.693C381.434 285.491 379.232 327.753 302.191 327.753C225.151 327.753 222.948 285.491 222.895 283.89V272.925C222.895 270.016 223.824 267.227 225.476 265.171C227.128 263.114 229.369 261.959 231.706 261.959H372.677C375.013 261.959 377.254 263.114 378.907 265.171C380.559 267.227 381.487 270.016 381.487 272.925V283.693ZM258.138 218.096H346.245C360.817 218.096 372.677 203.337 372.677 185.199V119.405C372.677 101.268 360.817 86.5085 346.245 86.5085H311.002V75.5428C311.002 72.6345 310.074 69.8454 308.421 67.7889C306.769 65.7325 304.528 64.5771 302.191 64.5771C299.854 64.5771 297.613 65.7325 295.961 67.7889C294.309 69.8454 293.381 72.6345 293.381 75.5428V86.5085H258.138C243.565 86.5085 231.706 101.268 231.706 119.405V185.199C231.706 203.337 243.565 218.096 258.138 218.096ZM249.327 119.405C249.327 116.497 250.256 113.708 251.908 111.652C253.56 109.595 255.801 108.44 258.138 108.44H346.245C348.581 108.44 350.822 109.595 352.475 111.652C354.127 113.708 355.055 116.497 355.055 119.405V185.199C355.055 188.108 354.127 190.897 352.475 192.953C350.822 195.01 348.581 196.165 346.245 196.165H258.138C255.801 196.165 253.56 195.01 251.908 192.953C250.256 190.897 249.327 188.108 249.327 185.199V119.405ZM262.543 152.302C262.543 147.94 263.936 143.756 266.414 140.672C268.893 137.587 272.254 135.854 275.759 135.854C279.264 135.854 282.626 137.587 285.104 140.672C287.583 143.756 288.975 147.94 288.975 152.302C288.975 156.665 287.583 160.849 285.104 163.933C282.626 167.018 279.264 168.751 275.759 168.751C272.254 168.751 268.893 167.018 266.414 163.933C263.936 160.849 262.543 156.665 262.543 152.302ZM315.407 152.302C315.407 147.94 316.8 143.756 319.278 140.672C321.757 137.587 325.118 135.854 328.623 135.854C332.128 135.854 335.49 137.587 337.968 140.672C340.447 143.756 341.839 147.94 341.839 152.302C341.839 156.665 340.447 160.849 337.968 163.933C335.49 167.018 332.128 168.751 328.623 168.751C325.118 168.751 321.757 167.018 319.278 163.933C316.8 160.849 315.407 156.665 315.407 152.302Z" fill="black"/>
<path d="M311.166 445.468C308.143 452.998 297.483 452.998 294.461 445.468L266.717 376.344C264.344 370.431 268.698 363.991 275.069 363.991H330.557C336.929 363.991 341.283 370.431 338.91 376.344L311.166 445.468Z" fill="black"/>
<ellipse cx="309.059" cy="590.124" rx="103.958" ry="79.6148" fill="#D9D9D9"/>
</svg>
