<svg width="304" height="596" viewBox="0 0 304 596" fill="none" xmlns="http://www.w3.org/2000/svg">
<path d="M216.693 98.793C215.905 98.793 215.379 98.793 214.59 99.0469L216.693 68.571C216.693 34.5394 186.462 17.0158 151.235 17.0158C116.009 17.0158 89.4581 34.5394 89.4581 68.571L91.5611 99.0469C90.7725 99.0469 90.2467 98.793 89.4581 98.793C81.3087 98.793 74.7366 105.142 74.7366 113.015C74.7366 120.888 81.3087 127.237 89.4581 127.237C90.7725 127.237 92.0869 126.983 93.4013 126.729C94.1899 157.967 120.741 182.856 153.076 182.856C185.41 182.856 211.961 157.967 212.75 126.729C214.064 126.983 215.379 127.237 216.693 127.237C224.843 127.237 231.415 120.888 231.415 113.015C231.415 105.142 224.843 98.793 216.693 98.793Z" fill="#FFD3B6"/>
<path d="M153.076 137.142C148.607 137.142 144.4 134.856 142.035 131.301C141.246 130.031 141.509 128.507 142.823 127.745C144.138 126.983 145.715 127.237 146.504 128.507C148.081 130.793 150.447 132.063 153.076 132.063C155.704 132.063 158.07 130.793 159.385 128.761C160.173 127.491 161.751 127.237 163.065 127.999C164.38 128.761 164.642 130.285 163.854 131.555C161.751 135.11 157.545 137.142 153.076 137.142Z" fill="#E5AB83"/>
<path d="M152.813 165.586C145.452 165.586 138.88 162.031 135.462 155.935C134.411 154.412 135.2 152.38 136.514 151.618C137.828 150.856 140.194 151.364 140.983 152.634C143.349 156.697 147.818 158.983 152.813 158.983C157.807 158.983 162.277 156.697 164.642 152.634C165.694 151.11 167.534 150.602 169.111 151.618C170.689 152.634 171.214 154.412 170.163 155.935C166.745 162.031 160.173 165.586 152.813 165.586Z" fill="#FF929D"/>
<path d="M120.478 103.11C120.215 99.8088 117.324 97.2692 113.906 97.2692C110.489 97.2692 107.597 99.8088 107.334 103.11V112.253C107.334 115.809 110.226 118.602 113.906 118.602C117.586 118.602 120.478 115.809 120.478 112.253V103.11ZM198.554 103.11C198.291 99.8088 195.4 97.2692 191.982 97.2692C188.565 97.2692 185.673 99.8088 185.41 103.11V112.253C185.41 115.809 188.302 118.602 191.982 118.602C195.663 118.602 198.554 115.809 198.554 112.253V103.11Z" fill="#2B3B47"/>
<path d="M113.117 102.856C113.117 102.095 112.329 101.333 111.54 101.333C110.752 101.333 109.963 101.841 109.963 102.856V105.142C109.963 105.904 110.752 106.666 111.54 106.666C112.329 106.666 113.117 105.904 113.117 105.142V102.856ZM191.194 102.856C191.194 102.095 190.405 101.333 189.616 101.333C188.828 101.333 188.039 101.841 188.039 102.856V105.142C188.039 105.904 188.828 106.666 189.616 106.666C190.405 106.666 191.194 105.904 191.194 105.142V102.856Z" fill="#959DA3"/>
<path d="M144.4 106.412C144.4 107.936 143.086 109.206 141.509 109.206C139.932 109.206 138.617 107.936 138.617 106.412C138.617 104.888 139.932 103.618 141.509 103.618C143.086 103.872 144.4 104.888 144.4 106.412ZM156.756 95.4914C155.179 95.4914 153.864 96.7613 153.864 98.2851C153.864 99.8089 155.179 101.079 156.756 101.079C158.333 101.079 159.648 99.8089 159.648 98.2851C159.648 96.7613 158.333 95.4914 156.756 95.4914ZM162.539 109.968C160.962 109.968 159.648 111.237 159.648 112.761C159.648 114.285 160.962 115.555 162.539 115.555C164.117 115.555 165.431 114.285 165.431 112.761C165.431 111.237 164.117 109.968 162.539 109.968Z" fill="#FFAF8F"/>
<path d="M147.818 176.761C134.148 176.761 121.53 172.697 111.014 165.84C121.793 176.253 136.777 182.602 153.076 182.602C185.936 182.602 212.75 156.697 212.75 124.952L213.013 122.158C208.281 153.142 180.941 176.761 147.818 176.761Z" fill="#EDC0A2"/>
<path d="M226.683 125.827C225.576 145.614 223.639 164.894 220.596 173.773H186.842C204.273 163.879 215.893 146.375 216.446 126.334C217.829 126.588 219.213 126.841 220.596 126.841C222.809 127.095 224.746 126.588 226.683 125.827ZM228.066 66.2113C228.066 28.6662 192.652 0 151.429 0C110.205 0 79.2179 28.6662 79.2179 66.2113L80.6012 85.4911L80.8779 127.349C80.3246 145.614 74.2379 166.67 72.5778 172.251C72.3012 173.012 72.8545 173.773 73.6845 173.773H88.348C90.008 173.773 91.9447 169.714 93.0514 166.923C93.328 165.909 94.9881 165.909 95.5414 166.923C96.6481 169.46 96.9248 171.49 96.9248 172.758C96.9248 173.265 97.4781 173.773 98.3081 173.773H120.442C103.565 164.133 92.2214 147.39 90.838 128.11V78.1343C90.838 73.568 91.668 69.7628 93.0514 66.2113C94.1581 64.4355 95.8181 62.406 97.7548 60.3765C94.9881 70.5238 95.8181 79.4028 96.0947 82.1933C96.0947 82.7006 96.6481 82.9543 97.2014 82.9543H187.396C189.609 82.9543 190.162 72.807 190.162 67.226C190.162 66.2112 191.822 65.9576 192.376 66.9723C194.312 71.7923 194.866 79.4028 194.866 82.1933C194.866 82.7006 195.419 83.208 195.972 83.208H219.489L218.383 98.9363C219.213 98.9363 219.766 98.6827 220.596 98.6827H222.809C223.086 98.6827 223.639 98.6827 223.916 98.9363C224.193 98.9363 224.469 99.19 224.746 99.19C225.023 99.19 225.299 99.4437 225.576 99.4437C225.853 99.4437 226.129 99.6974 226.406 99.6974C226.683 99.9511 227.236 99.9511 227.513 100.205C228.343 81.4322 228.066 66.2113 228.066 66.2113Z" fill="#E36A0E"/>
<path d="M219.322 62.4758C213.276 32.7617 186.199 10.6666 153.864 10.6666C124.159 10.6666 98.9218 29.4601 90.2467 55.3647C98.9218 41.1426 115.221 24.1268 136.777 19.0475C142.297 17.5237 147.818 16.7618 153.864 16.7618C166.745 16.7618 178.838 20.8253 188.828 27.4284C203.812 37.0791 214.59 51.5552 219.322 62.4758Z" fill="#FFA1E0"/>
<path d="M165.295 180.338C170.687 180.371 180.521 175.678 180.521 178.268L175.165 206.312C175.165 208.923 170.746 211.04 165.295 211.04H137.9C132.45 211.04 128.031 208.923 128.031 206.312L125.174 178.268C125.243 175.685 133.387 177.924 137.9 180.338H165.295Z" fill="#FFD3B6"/>
<path d="M73.3018 357.379L8.66208 319.235C6.5385 317.982 5.24321 315.752 5.24321 313.348V297.715C5.24321 296.924 5.38395 296.139 5.65926 295.395L15.9554 267.543L26.4549 247.216C28.1577 243.919 32.2415 242.497 35.7302 243.986L55.7312 252.52C59.1676 253.986 60.8406 257.774 59.5589 261.185L50.9486 284.101L44.0476 300.952C42.6787 304.294 44.1956 308.092 47.5337 309.68L85.5417 327.758C88.6611 329.242 90.2211 332.681 89.2363 335.902L83.8735 353.445C82.544 357.794 77.3075 359.743 73.3018 357.379Z" fill="#FFD3B6"/>
<path d="M235.698 357.379L300.337 319.235C302.461 317.982 303.756 315.752 303.756 313.348V297.715C303.756 296.924 303.616 296.139 303.34 295.395L293.044 267.543L282.545 247.216C280.842 243.919 276.758 242.497 273.269 243.986L253.268 252.52C249.832 253.986 248.159 257.774 249.441 261.185L258.051 284.101L264.952 300.952C266.321 304.294 264.804 308.092 261.466 309.68L223.458 327.758C220.338 329.242 218.778 332.681 219.763 335.902L225.126 353.445C226.455 357.794 231.692 359.743 235.698 357.379Z" fill="#FFD3B6"/>
<path d="M114.508 389.66C114.508 385.85 117.705 382.761 121.649 382.761H134.632C138.526 382.761 141.702 385.774 141.773 389.535L144.281 522.822C144.38 528.081 138.594 531.509 133.787 529.038L129.292 526.728C128.259 526.198 127.108 525.92 125.938 525.92H121.649C117.705 525.92 114.508 522.831 114.508 519.021V389.66Z" fill="#FFD3B6"/>
<path d="M151.947 396.152C151.781 392.234 155.024 388.97 159.083 388.97H180.273C184.192 388.97 187.379 392.021 187.415 395.807L188.361 496.67C188.395 500.314 185.491 503.355 181.728 503.615L164.013 504.837C163.623 504.864 163.238 504.935 162.866 505.049C159.73 506.005 156.51 503.822 156.375 500.647L151.947 396.152Z" fill="#FFD3B6"/>
<path d="M94.4023 270.734L34.5996 380.539C6.91069 431.38 122.791 447.01 152 447.01C181.21 447.01 297.09 431.38 269.401 380.539L209.598 270.734" fill="#E71313"/>
<path d="M124.144 327.353C134.332 321.991 143.242 324.165 148.579 327.602C150.784 329.027 151.879 329.732 152.518 329.732C153.156 329.732 154.251 329.027 156.456 327.602C161.793 324.165 170.688 321.991 180.891 327.367C194.271 334.418 197.297 357.657 166.446 377.268C160.561 381.014 157.627 382.88 152.518 382.88C147.424 382.88 144.474 381.014 138.605 377.268C107.738 357.657 110.779 334.418 124.16 327.367L124.144 327.353Z" fill="#FF929D"/>
<path d="M79.5135 297.381C49.1028 311.733 -8.05139 265.314 0.950184 254.194L54.2298 188.325C57.1188 184.741 61.8628 182.596 66.911 182.596H98.8879C100.661 182.605 102.39 183.14 103.839 184.127C105.288 185.115 107.119 191.765 107.723 193.376C113.547 209.05 131.748 227.873 150.572 227.873C169.396 227.873 191.184 203.793 197.008 188.12C197.612 186.508 198.712 185.115 200.162 184.127C201.611 183.14 203.339 182.605 205.113 182.596H237.089C242.138 182.596 246.866 184.741 249.771 188.325L303.05 254.179C312.052 265.314 254.866 311.733 224.486 297.381" fill="#FD292C"/>
<path d="M107.08 209.723C99.5487 198.494 97.2433 191.143 96.2968 182.682L119.864 186.477L140.217 194.066L149.858 196.481L157.713 195.101L189.425 182.682H198.628L208.061 183.372L207.347 189.292L193.784 209.723L163.069 238.566H132.004L107.08 209.723Z" fill="white"/>
<path d="M80.2286 295.83H224.486L225.914 301.35H79.3359L80.2286 295.83Z" fill="black"/>
<path d="M182.909 491.852C172.839 492.014 160.642 495.995 150.661 505.114L156.303 571.846L154.229 595.903H172.868L177.769 584.218L184.542 595.903H233.133C235.665 577.754 218.95 555.579 209.234 555.514L203.933 555.862C192.356 558.113 188.013 564.236 182.668 571.284L181.296 573.095L179.141 572.261L174.963 570.635L170.383 581.972L164.801 579.871L169.411 568.476L162.847 565.93L163.91 563.268C166.469 556.847 170.559 550.768 176.385 546.491C181.166 542.982 187.158 540.765 194.072 540.701C194.533 540.697 194.996 540.706 195.465 540.721C196.08 540.741 196.702 540.773 197.329 540.827L198.131 535.202C189.767 530.216 176.477 530.595 164.871 534.979L162.697 529.587C169.146 527.151 176.096 525.715 182.789 525.696C188.554 525.68 194.126 526.721 199.003 529.065L200.796 516.47C190.764 507.976 175.97 508.846 162.517 516.286L159.541 511.261C167.098 507.082 175.409 504.674 183.37 504.66C189.931 504.647 196.256 506.263 201.738 509.858L202.44 504.95C202.553 504.477 202.635 504.016 202.69 503.565C202.691 503.559 202.69 503.552 202.691 503.546C202.805 500.279 201.387 497.86 198.542 495.801C195.501 493.601 190.723 492.103 185.064 491.88C184.346 491.851 183.628 491.841 182.909 491.851L182.909 491.852ZM120.569 515.802C120.3 515.805 120.031 515.812 119.767 515.822C115.547 515.988 112.02 517.115 109.847 518.688C107.674 520.26 106.735 521.984 106.981 524.525L106.79 524.545C106.832 524.927 106.894 525.323 106.99 525.726L107.732 530.905C111.198 528.583 115.139 527.447 119.125 527.468C124.829 527.5 130.544 529.725 135.73 533.432L132.173 538.079C127.77 534.931 123.174 533.28 119.086 533.258C115.242 533.237 111.783 534.51 108.694 537.701L110.107 547.566C112.985 546.271 116.132 545.683 119.356 545.688C124.1 545.695 129.006 546.976 133.466 549.154L130.76 554.323C123.77 550.909 116.174 550.449 110.979 553.704L111.63 558.264C111.897 558.254 112.164 558.247 112.432 558.244C117.124 558.213 121.141 559.502 124.406 561.729C129.05 564.897 132.175 569.633 134.868 574.615L136.241 577.171L130.889 579.9L135.29 587.781L130.018 590.53L125.589 582.602L122.653 584.102L120.619 585.138L119.056 583.512C113.823 578.053 109.713 573.41 99.6855 572.611L96.7995 572.378C86.5102 577.122 81.5498 584.238 83.1904 596H144.258L142.625 577.509L142.615 577.49L146.974 527.11C138.967 519.026 128.702 515.711 120.569 515.802ZM194.112 546.482C188.471 546.505 183.875 548.265 180.013 551.1C176.049 554.009 172.948 558.156 170.713 562.745L179.261 566.066C183.769 560.212 189.143 554.048 199.083 551.09L196.507 546.607C196.09 546.575 195.661 546.516 195.255 546.501C194.874 546.487 194.493 546.481 194.112 546.482ZM113.033 563.966C111.658 563.957 110.135 564.134 108.454 564.469L105.568 567.77C113.068 569.663 117.835 573.881 121.842 577.975L125.259 576.232L128.094 574.78C125.969 571.253 123.655 568.3 120.949 566.454C118.867 565.033 116.561 564.12 113.614 563.986C113.424 563.977 113.23 563.967 113.033 563.966Z" fill="black"/>
<path d="M145.408 295.146L133.162 315.431C132.518 316.922 133.949 318.472 135.564 318.018L138.508 317.188C139.407 316.932 140.368 317.317 140.818 318.117L142.28 320.724C143.077 322.146 145.224 322.037 145.868 320.546L153.77 297.467C154.189 296.489 153.708 295.364 152.696 294.949L148.025 294.119C146.992 293.705 145.827 294.169 145.408 295.146Z" fill="#02920E"/>
<path d="M160.138 295.146L172.384 315.431C173.028 316.922 171.597 318.472 169.982 318.018L167.038 317.188C166.138 316.932 165.178 317.317 164.728 318.117L163.266 320.724C162.469 322.146 160.322 322.037 159.678 320.546L151.776 297.467C151.357 296.489 151.838 295.364 152.85 294.949L157.521 294.119C158.554 293.705 159.719 294.169 160.138 295.146Z" fill="#02920E"/>
<path d="M134.286 284.086C134.286 284.086 134.572 283.928 135.043 283.829C135.513 283.72 136.167 283.691 136.913 283.829C137.659 283.977 138.518 284.303 139.397 284.856C139.837 285.143 140.287 285.449 140.747 285.755C141.196 286.091 141.667 286.387 142.127 286.762C142.587 287.118 143.047 287.473 143.496 287.829C143.946 288.174 144.375 288.589 144.805 288.954C145.234 289.32 145.633 289.685 146.021 290.07C146.399 290.456 146.767 290.772 147.094 291.147C147.759 291.838 148.301 292.47 148.679 292.924C149.047 293.408 149.262 293.685 149.262 293.685C151.194 296.183 150.662 299.719 148.086 301.585C148.045 301.615 147.984 301.664 147.933 301.694C147.933 301.694 147.646 301.891 147.135 302.237C146.635 302.553 145.909 302.988 145.06 303.442C144.631 303.689 144.181 303.886 143.691 304.133C143.2 304.38 142.699 304.617 142.178 304.834C141.656 305.052 141.115 305.318 140.573 305.506C140.031 305.703 139.479 305.911 138.927 306.108C138.375 306.325 137.833 306.464 137.291 306.641C136.76 306.79 136.228 306.938 135.727 307.086C134.715 307.343 133.806 307.402 133.039 307.313C132.283 307.214 131.669 306.987 131.26 306.74C130.851 306.503 130.627 306.266 130.627 306.266C125.076 300.43 125.464 291.394 131.485 286.041C132.334 285.291 133.315 284.609 134.286 284.086ZM174.929 306.246C174.929 306.246 174.705 306.474 174.296 306.72C173.887 306.967 173.273 307.194 172.517 307.293C171.761 307.382 170.841 307.323 169.829 307.066C169.317 306.918 168.796 306.77 168.265 306.622C167.723 306.444 167.181 306.296 166.629 306.088C166.077 305.891 165.525 305.684 164.983 305.486C164.442 305.298 163.9 305.032 163.378 304.815C162.857 304.597 162.356 304.37 161.866 304.113C161.385 303.866 160.925 303.669 160.496 303.422C159.647 302.968 158.922 302.533 158.421 302.217C157.91 301.872 157.623 301.674 157.623 301.674C154.986 299.887 154.342 296.371 156.192 293.813C156.223 293.774 156.264 293.714 156.305 293.665C156.305 293.665 156.519 293.389 156.887 292.905C157.266 292.45 157.807 291.818 158.472 291.127C158.799 290.762 159.167 290.436 159.545 290.051C159.923 289.666 160.332 289.3 160.762 288.935C161.191 288.569 161.62 288.155 162.07 287.809C162.52 287.453 162.98 287.098 163.44 286.742C163.9 286.367 164.36 286.071 164.82 285.735C165.28 285.429 165.73 285.133 166.169 284.836C167.048 284.283 167.897 283.957 168.653 283.809C169.41 283.671 170.053 283.711 170.524 283.809C170.994 283.908 171.28 284.066 171.28 284.066C178.415 287.918 180.971 296.628 176.984 303.521C176.401 304.508 175.676 305.447 174.929 306.246Z" fill="#007222"/>
<path d="M152.768 305.397C156.686 305.397 159.862 302.329 159.862 298.544C159.862 294.758 156.686 291.69 152.768 291.69C148.85 291.69 145.674 294.758 145.674 298.544C145.674 302.329 148.85 305.397 152.768 305.397Z" fill="#013205"/>
<path d="M148.658 297.991C148.475 297.991 148.301 297.961 148.127 297.892C147.411 297.605 147.064 296.805 147.36 296.114C147.81 295.058 148.587 294.198 149.599 293.616C150.274 293.231 151.132 293.448 151.521 294.1C151.919 294.742 151.694 295.581 151.02 295.956C150.529 296.233 150.161 296.647 149.946 297.151C149.732 297.675 149.21 297.991 148.658 297.991Z" fill="#02920E"/>
</svg>
