<svg width="654" height="669" viewBox="0 0 654 669" fill="none" xmlns="http://www.w3.org/2000/svg">
<path d="M429.979 114.557C429.857 86.9432 407.373 64.7247 379.759 64.9307L322.832 65.3555C295.218 65.5615 272.932 88.1141 273.054 115.728L273.349 182.369C273.471 209.983 295.955 232.201 323.569 231.995L380.496 231.57C408.11 231.364 430.396 208.812 430.274 181.198L429.979 114.557Z" fill="#D9D9D9"/>
<path d="M273.387 402.439C297.83 482.788 411.585 482.788 436.028 402.439L455.473 338.519C472.084 283.915 431.228 228.781 374.152 228.781H335.262C278.187 228.781 237.33 283.915 253.942 338.519L273.387 402.439Z" fill="#D9D9D9"/>
<path fill-rule="evenodd" clip-rule="evenodd" d="M277.762 238.911C313.704 238.905 310.059 183.422 269.643 114.988C229.195 46.5249 192.905 51.6504 156.963 51.6566C146.666 52.5529 144.471 52.2302 139.468 114.977L239.616 284.114L117.691 179.166C55.0306 150.471 11.9362 240.23 29.4134 306.24C51.3418 339.445 62.4927 344.981 125.153 373.675C187.814 402.37 229.521 389.621 218.371 345.241C217.385 341.44 216.064 337.496 214.424 333.454L289.112 367.685L432.425 521.1C445.215 533.152 440.709 528.346 438.532 526.024C438.015 525.473 437.629 525.062 437.638 525.05C437.662 525.013 441.083 528.416 454.557 541.818L454.562 541.822L457.171 544.417C463.223 550.437 469.31 556.587 475.316 562.655L475.317 562.656C486.952 574.412 498.284 585.862 508.473 595.463L551.637 607.045L572.286 612.586L543.216 533.26C532.372 520.674 503.143 494.14 480.709 473.774C471.676 465.575 463.745 458.375 458.558 453.487L316.143 319.291L267.91 237.696C271.365 238.486 274.649 238.891 277.762 238.911ZM185.269 58.2312C175.445 49.441 173.723 55.9022 169.424 55.9006C165.56 55.9002 158.857 81.3684 156.963 51.6566C155.442 62.0774 160.323 84.2115 178.522 115.02C191.409 136.833 207.921 157.518 223.821 171.773C233.644 180.563 242.062 185.815 246.36 185.817C250.224 185.817 251.627 181.75 252.126 178.347C253.648 167.927 248.766 145.792 230.567 114.983C217.681 93.1707 201.169 72.4859 185.269 58.2312ZM98.8156 236.609C70.6188 223.7 69.8414 236.244 62.655 241.327C61.7104 249.519 55.1589 265.117 55.1589 265.117C56.494 270.424 47.8929 277.718 57.375 287.119C72.7426 302.328 93.0376 316.326 112.97 325.438C141.167 338.347 158.85 337.475 166.036 332.392C168.372 330.719 170.903 327.745 169.714 322.955C168.379 317.648 166.702 295.122 157.22 285.722C139.117 252.574 118.748 245.721 98.8156 236.609ZM281.171 333.597C279.203 329.011 278.892 325.014 280.305 322.483C281.718 319.952 284.741 319.097 288.708 320.103C292.675 321.11 297.262 323.898 301.458 327.852C305.655 331.807 309.118 336.605 311.087 341.19C313.055 345.776 313.366 349.774 311.953 352.304C310.539 354.835 307.517 355.691 303.55 354.684C299.583 353.677 294.996 350.89 290.8 346.935C286.603 342.981 283.139 338.183 281.171 333.597Z" fill="black"/>
<ellipse cx="103.958" cy="79.6148" rx="103.958" ry="79.6148" transform="matrix(-1 0 0 1 448.899 510.507)" fill="#D9D9D9"/>
<path d="M443.164 296.865L455.305 296.865L465.672 259.468L455.305 235.292L440.914 205.793L419.421 220.07L434.422 253.53L442.426 273.148L443.164 296.865Z" fill="#D9D9D9" stroke="#D9D9D9"/>
</svg>
