<svg width="685" height="732" viewBox="0 0 685 732" fill="none" xmlns="http://www.w3.org/2000/svg">
<path fill-rule="evenodd" clip-rule="evenodd" d="M443.347 87.4406C447.163 85.5192 451.41 84.6393 455.616 84.8988C452.35 82.856 448.124 80.134 443.73 77.0786C439.006 73.7949 434.07 70.117 429.927 66.4875C425.813 62.8846 422.366 59.2377 420.745 56.0069C416.021 46.5921 419.431 38.8927 421.734 35.3135C422.972 33.3859 425.507 33.3582 426.915 34.7363C431.936 39.6468 447.09 54.2211 463.44 67.5858C462.5 46.489 459.876 25.6284 458.941 18.6678C458.679 16.7146 460.215 14.6998 462.5 14.8598C466.746 15.1534 474.957 17.0221 479.681 26.4369C481.302 29.6676 482.164 34.6113 482.594 40.0628C483.026 45.5541 483.024 51.7093 482.833 57.4594C482.668 62.1947 482.389 66.9303 481.997 71.6623C484.437 67.9391 487.915 64.941 492.005 63.0353C496.096 61.1297 500.622 60.3992 505.028 60.9333C509.434 61.4675 513.53 63.243 516.813 66.0426C520.096 68.8421 522.424 72.5441 523.512 76.695C524.6 80.8458 524.4 85.2654 522.938 89.4123C521.476 93.5592 518.814 97.2534 515.278 100.042C511.743 102.831 507.488 104.594 503.034 105.114C498.581 105.635 494.121 104.89 490.203 102.972C487.122 101.682 482.852 99.402 477.969 96.5375C477.349 102.163 476.622 106.95 475.814 110.192C475.107 113.966 473.418 117.541 470.909 120.576C468.401 123.61 465.157 126.002 461.488 127.522C457.819 129.042 453.848 129.639 449.956 129.257C446.064 128.874 442.38 127.524 439.258 125.337C436.136 123.149 433.681 120.197 432.126 116.763C430.572 113.329 429.971 109.528 430.382 105.725C430.792 101.922 432.2 98.243 434.47 95.0415C436.74 91.8399 439.797 89.2228 443.347 87.4406ZM455.816 112.293C454.369 113.019 452.707 113.17 451.197 112.712C449.686 112.255 448.45 111.226 447.761 109.853C447.072 108.48 446.987 106.875 447.523 105.39C448.059 103.906 449.173 102.664 450.621 101.938C452.068 101.212 453.73 101.061 455.24 101.518C456.751 101.976 457.986 103.004 458.675 104.377C459.364 105.75 459.45 107.356 458.914 108.84C458.378 110.325 457.263 111.567 455.816 112.293ZM503.838 88.1986C502.391 88.9248 500.729 89.0757 499.218 88.6182C497.708 88.1607 496.472 87.1322 495.783 85.7591C495.094 84.3859 495.008 82.7805 495.544 81.2961C496.081 79.8116 497.195 78.5697 498.642 77.8436C500.09 77.1174 501.751 76.9665 503.262 77.424C504.772 77.8815 506.008 78.91 506.697 80.2831C507.386 81.6563 507.472 83.2617 506.936 84.7461C506.399 86.2306 505.285 87.4725 503.838 88.1986Z" fill="#535252"/>
<path d="M450.156 73.0177L422.568 82.4429L428.759 102.433L437.042 122.296L444.628 137.353L454.781 153.225C457.905 156.43 459.63 159.971 465.115 164.973C468.767 168.302 471.279 169.921 478.601 173.119L483.817 218.954L480.657 288.875L476.108 326.484L471.643 350.997L463.719 373.78L454.011 394.73L441.513 411.001L423.464 425.668L402.571 434.689L410.156 464.291L421.76 461.655L434.035 456.077L455.377 440.277L469.271 426.379L480.844 408.624L488.321 392.657L496.356 371.807L501.769 349.176L506.234 324.664L509.946 287.105L510.228 248.3L507.472 171.374L508.405 172.997L518.244 159.428L522.415 155.01L526.072 151.137L523.364 132.178L519.883 109.181L511.261 73.2052L507.938 60.013L489.549 63.165L488.937 76.5197L489.877 89.4278L494.421 117.725L494.249 130.23L492.081 136.412L490.673 142.359L491.239 144.718L484.294 140.774L474.783 128.743L463.459 107.123L456.152 89.6253L452.276 80.6474L450.156 73.0177Z" fill="#D9D9D9" stroke="black"/>
<path d="M451.476 177.561C451.354 149.947 428.87 127.729 401.256 127.935L344.329 128.359C316.715 128.565 294.429 151.118 294.551 178.732L294.846 245.373C294.968 272.987 317.452 295.205 345.066 294.999L401.994 294.574C429.607 294.368 451.893 271.816 451.771 244.202L451.476 177.561Z" fill="#D9D9D9"/>
<path d="M54.4141 123.842L38.8353 151.733L59.728 163.771L82.2651 174.181L100.438 181.12L121.392 186.865C126.519 187.243 130.743 188.918 139.252 189.063C144.916 189.16 148.284 188.67 156.904 185.986L197.324 220.127L249.719 280.304L275.525 314.748L291.095 338.289L302.42 362.917L310.815 387.328L313.203 409.897L309.701 435.18L299.384 457.862L329.004 476.841L336.603 466.209L342.444 452.653L347.8 424.034L348.444 402.412L344.117 379.288L337.783 360.627L328.072 337.518L314.774 314.844L299.204 291.303L272.74 257.511L242.435 225.185L179.597 163.518L181.652 164.181L183.616 148.247L182.659 139.091L181.044 130.586L179.174 123.111L175.218 113.038L165.799 91.4728L142.759 48.8365L112.475 64.7964L116.659 70.0034L126.177 87.85L137.607 110.036L142.941 122.676L146.81 135.207L147.929 145.786L145.088 153.274L136.194 155.067L118.797 152.034L92.3443 142.385L72.4824 133.223L62.1853 128.614L54.4141 123.842Z" fill="#D9D9D9" stroke="black"/>
<path d="M294.884 465.443C319.326 545.792 433.081 545.792 457.524 465.443L476.969 401.523C493.581 346.919 452.724 291.785 395.649 291.785H356.759C299.684 291.785 258.827 346.919 275.438 401.523L294.884 465.443Z" fill="#D9D9D9"/>
<path fill-rule="evenodd" clip-rule="evenodd" d="M299.259 301.915C335.201 301.908 331.557 246.425 291.14 177.992C250.692 109.528 214.402 114.654 178.46 114.66C168.163 115.556 165.969 115.234 160.965 177.981L261.114 347.117L139.189 242.169C76.5278 213.474 33.4334 303.234 50.9106 369.243C72.839 402.448 83.9899 407.984 146.651 436.679C209.312 465.374 251.018 452.625 239.869 408.244C238.882 404.444 237.561 400.499 235.922 396.457L310.609 430.689L453.923 584.103C466.712 596.155 462.206 591.35 460.029 589.028C459.512 588.477 459.127 588.066 459.135 588.053C459.159 588.016 462.581 591.42 476.055 604.821L476.059 604.826L478.668 607.421C484.72 613.44 490.807 619.59 496.813 625.658L496.814 625.66C508.45 637.416 519.781 648.865 529.97 658.466L573.134 670.048L593.783 675.589L564.714 596.263C553.869 583.677 524.641 557.144 502.206 536.778C493.173 528.578 485.242 521.378 480.055 516.491L337.64 382.294L289.407 300.699C292.862 301.489 296.146 301.894 299.259 301.915ZM206.766 121.235C196.943 112.444 195.22 118.906 190.922 118.904C187.058 118.904 180.354 144.372 178.46 114.66C176.939 125.081 181.821 147.215 200.02 178.024C212.906 199.837 229.418 220.522 245.318 234.776C255.141 243.566 263.559 248.819 267.857 248.82C271.722 248.821 273.124 244.754 273.624 241.351C275.145 230.93 270.263 208.796 252.064 177.987C239.178 156.174 222.666 135.489 206.766 121.235ZM120.313 299.613C92.116 286.703 91.3386 299.247 84.1522 304.33C83.2076 312.523 76.6561 328.121 76.6561 328.121C77.9913 333.427 69.3902 340.722 78.8723 350.123C94.2398 365.331 114.535 379.329 134.467 388.441C162.664 401.35 180.347 400.479 187.534 395.396C189.869 393.723 192.4 390.748 191.211 385.958C189.876 380.651 188.199 358.126 178.717 348.725C160.614 315.577 140.245 308.725 120.313 299.613ZM302.669 396.6C300.7 392.015 300.389 388.017 301.802 385.486C303.216 382.956 306.238 382.1 310.205 383.107C314.172 384.114 318.759 386.901 322.956 390.856C327.152 394.81 330.616 399.608 332.584 404.194C334.552 408.779 334.864 412.777 333.45 415.308C332.037 417.838 329.014 418.694 325.047 417.687C321.08 416.68 316.494 413.893 312.297 409.939C308.1 405.984 304.637 401.186 302.669 396.6Z" fill="black"/>
<ellipse cx="103.958" cy="79.6148" rx="103.958" ry="79.6148" transform="matrix(-1 0 0 1 470.396 573.511)" fill="#D9D9D9"/>
</svg>
