<svg width="654" height="752" viewBox="0 0 654 752" fill="none" xmlns="http://www.w3.org/2000/svg">
<path d="M429.986 114.576C429.864 86.9617 407.38 64.7432 379.767 64.9493L322.839 65.3741C295.225 65.5801 272.939 88.1327 273.061 115.747L273.356 182.387C273.478 210.001 295.962 232.22 323.576 232.014L380.504 231.589C408.117 231.383 430.403 208.83 430.281 181.216L429.986 114.576Z" fill="#D9D9D9"/>
<path d="M512.804 641.415L486.875 636.061L490.418 615.755L495.867 595.282L501.18 579.583L508.731 562.735C511.228 559.184 512.423 555.5 516.872 549.875C519.832 546.13 521.938 544.208 528.234 540.083L522.808 464.854L518.177 427.169L510.19 391.206L503.627 367.973L494.113 346.902L483.173 327.861L470.191 313.759L452.352 301.985L432.521 296.099L436.336 266.247L447.106 267.206L458.785 270.935L479.72 283.355L493.721 294.956L506.019 310.63L514.427 325.132L523.842 344.306L531.069 365.577L537.632 388.809L544.857 424.84L549.107 462.558L554.533 537.787L555.21 536.078L566.323 543.657L571.596 549.37L576.107 555.151L579.831 560.525L584.083 568.702L592.678 586.829L607.317 625.544L581.079 636.405L580.022 630.784L573.827 614.661L565.911 594.879L560.773 584.377L554.922 574.89L548.837 568.279L542.591 565.968L536.714 570.766L529.347 583.789L521.329 606.39L516.519 624.427L513.936 633.698L512.804 641.415Z" fill="#D9D9D9" stroke="black"/>
<path d="M206.498 620.632L232.427 615.278L228.884 594.972L223.435 574.499L218.122 558.799L210.57 541.952C208.074 538.401 206.878 534.717 202.43 529.091C199.47 525.347 197.363 523.425 191.068 519.3L191.068 473.981L201.125 406.386L209.112 370.423L215.675 347.19L225.189 326.119L236.129 307.078L249.111 292.975L266.95 281.202L286.781 275.316L282.966 245.463L272.196 246.423L260.517 250.152L239.582 262.572L225.581 274.173L213.283 289.847L204.875 304.348L195.459 323.523L188.232 344.793L181.67 368.026L174.444 404.056L170.195 441.775L164.769 517.003L164.092 515.295L152.979 522.873L147.706 528.587L143.195 534.367L139.471 539.741L135.219 547.919L126.623 566.045L111.985 604.761L138.223 615.622L139.28 610.001L145.475 593.878L153.39 574.096L158.528 563.594L164.38 554.107L170.465 547.496L176.711 545.185L182.588 549.983L189.954 563.005L197.973 585.607L202.783 603.643L205.366 612.915L206.498 620.632Z" fill="#D9D9D9" stroke="black"/>
<path d="M273.388 402.44C297.831 482.788 411.586 482.788 436.029 402.44L455.474 338.52C472.085 283.915 431.229 228.781 374.153 228.781H335.263C278.188 228.781 237.331 283.915 253.943 338.52L273.388 402.44Z" fill="#D9D9D9"/>
<path fill-rule="evenodd" clip-rule="evenodd" d="M277.762 238.911C313.704 238.905 310.059 183.422 269.643 114.988C229.195 46.5249 192.905 51.6504 156.963 51.6566C146.666 52.5529 144.471 52.2302 139.468 114.977L239.616 284.114L117.691 179.166C55.0306 150.471 11.9362 240.23 29.4134 306.24C51.3418 339.445 62.4927 344.981 125.153 373.675C187.814 402.37 229.521 389.621 218.371 345.241C217.385 341.44 216.064 337.496 214.424 333.454L289.112 367.685L432.425 521.1C445.215 533.152 440.709 528.346 438.532 526.024C438.015 525.473 437.629 525.062 437.638 525.05C437.662 525.013 441.083 528.416 454.557 541.818L454.562 541.822L457.171 544.417C463.223 550.437 469.31 556.587 475.316 562.655L475.317 562.656C486.952 574.412 498.284 585.862 508.473 595.463L551.637 607.045L572.286 612.586L543.216 533.26C532.372 520.674 503.143 494.14 480.709 473.774C471.676 465.575 463.745 458.375 458.558 453.487L316.143 319.291L267.91 237.696C271.365 238.486 274.649 238.891 277.762 238.911ZM185.269 58.2312C175.445 49.441 173.723 55.9022 169.424 55.9006C165.56 55.9002 158.857 81.3684 156.963 51.6566C155.442 62.0774 160.323 84.2115 178.522 115.02C191.409 136.833 207.921 157.518 223.821 171.773C233.644 180.563 242.062 185.815 246.36 185.817C250.224 185.817 251.627 181.75 252.126 178.347C253.648 167.927 248.766 145.792 230.567 114.983C217.681 93.1707 201.169 72.4859 185.269 58.2312ZM98.8156 236.609C70.6188 223.7 69.8414 236.244 62.655 241.327C61.7104 249.519 55.1589 265.117 55.1589 265.117C56.494 270.424 47.8929 277.718 57.375 287.119C72.7426 302.328 93.0376 316.326 112.97 325.438C141.167 338.347 158.85 337.475 166.036 332.392C168.372 330.719 170.903 327.745 169.714 322.955C168.379 317.648 166.702 295.122 157.22 285.722C139.117 252.574 118.748 245.721 98.8156 236.609ZM281.171 333.597C279.203 329.011 278.892 325.014 280.305 322.483C281.718 319.952 284.741 319.097 288.708 320.103C292.675 321.11 297.262 323.898 301.458 327.852C305.655 331.807 309.118 336.605 311.087 341.19C313.055 345.776 313.366 349.774 311.953 352.304C310.539 354.835 307.517 355.691 303.55 354.684C299.583 353.677 294.996 350.89 290.8 346.935C286.603 342.981 283.139 338.183 281.171 333.597Z" fill="black"/>
<ellipse cx="103.958" cy="79.6148" rx="103.958" ry="79.6148" transform="matrix(-1 0 0 1 448.899 510.508)" fill="#D9D9D9"/>
</svg>
