<svg width="982" height="1431" viewBox="0 0 982 1431" fill="none" xmlns="http://www.w3.org/2000/svg">
<path d="M980.095 865.893C979.549 746.106 958.759 650.529 933.658 652.416C908.558 654.302 888.652 752.938 889.198 872.725C889.743 992.511 910.534 1088.09 935.634 1086.2C960.735 1084.32 980.64 985.68 980.095 865.893Z" fill="#D9D9D9"/>
<path d="M795.55 623.549C854.949 714.701 927.497 770.125 957.592 747.342C987.686 724.56 963.93 632.197 904.532 541.045C845.133 449.893 772.585 394.469 742.491 417.252C712.396 440.034 736.152 532.397 795.55 623.549Z" fill="#D9D9D9"/>
<path d="M973.083 1130.8C975.844 1130.77 978.059 1128.5 978.029 1125.74L977.522 1078C977.493 1075.24 975.231 1073.02 972.469 1073.05L966.211 1073.12C963.45 1073.15 961.235 1075.41 961.265 1078.17L961.772 1125.92C961.801 1128.68 964.064 1130.89 966.825 1130.86L973.083 1130.8Z" fill="#D9D9D9"/>
<path d="M905.083 1130.8C907.844 1130.77 910.059 1128.5 910.029 1125.74L909.522 1078C909.493 1075.24 907.231 1073.02 904.469 1073.05L898.211 1073.12C895.45 1073.15 893.235 1075.41 893.265 1078.17L893.772 1125.92C893.801 1128.68 896.064 1130.89 898.825 1130.86L905.083 1130.8Z" fill="#D9D9D9"/>
<path d="M876.212 1105.84C878.78 1106.86 881.684 1105.6 882.699 1103.03L900.245 1058.62C901.26 1056.06 900 1053.15 897.432 1052.14L891.612 1049.84C889.044 1048.82 886.139 1050.08 885.124 1052.65L867.579 1097.06C866.564 1099.62 867.823 1102.53 870.391 1103.54L876.212 1105.84Z" fill="#D9D9D9"/>
<path d="M950.083 1130.8C952.844 1130.77 955.059 1128.5 955.029 1125.74L954.522 1078C954.493 1075.24 952.231 1073.02 949.469 1073.05L943.211 1073.12C940.45 1073.15 938.235 1075.41 938.265 1078.17L938.772 1125.92C938.801 1128.68 941.064 1130.89 943.825 1130.86L950.083 1130.8Z" fill="#D9D9D9"/>
<path d="M928.083 1130.8C930.844 1130.77 933.059 1128.5 933.029 1125.74L932.522 1078C932.493 1075.24 930.231 1073.02 927.469 1073.05L921.211 1073.12C918.45 1073.15 916.235 1075.41 916.265 1078.17L916.772 1125.92C916.801 1128.68 919.064 1130.89 921.825 1130.86L928.083 1130.8Z" fill="#D9D9D9"/>
<path d="M981.083 1042C981.083 1027.64 969.442 1016 955.083 1016H908.083C893.723 1016 882.083 1027.64 882.083 1042V1064C882.083 1078.36 893.723 1090 908.083 1090H955.083C969.442 1090 981.083 1078.36 981.083 1064V1042Z" fill="#D0CFCF"/>
<path d="M0.987671 865.893C1.53324 746.106 22.3235 650.529 47.4241 652.416C72.5246 654.302 92.4304 752.938 91.8848 872.725C91.3392 992.511 70.549 1088.09 45.4484 1086.2C20.3478 1084.32 0.442099 985.68 0.987671 865.893Z" fill="#D9D9D9"/>
<path d="M699 912C699 1018.04 605.428 1104 490 1104C374.572 1104 281 1018.04 281 912C281 805.961 374.572 720 490 720C605.428 720 699 805.961 699 912Z" fill="#595959"/>
<path d="M281 1183H328V1423H281V1183Z" fill="#595959"/>
<path d="M652 1183H699V1409H652V1183Z" fill="#595959"/>
<path d="M649 1379C649 1370.16 656.163 1363 665 1363H807C815.837 1363 823 1370.16 823 1379V1415C823 1423.84 815.837 1431 807 1431H665C656.163 1431 649 1423.84 649 1415V1379Z" fill="#D9D9D9"/>
<path d="M157 1379C157 1370.16 164.163 1363 173 1363H315C323.837 1363 331 1370.16 331 1379V1415C331 1423.84 323.837 1431 315 1431H173C164.163 1431 157 1423.84 157 1415V1379Z" fill="#D9D9D9"/>
<path d="M619 129C619 200.245 561.245 258 490 258C418.755 258 361 200.245 361 129C361 57.7553 418.755 0 490 0C561.245 0 619 57.7553 619 129Z" fill="#595959"/>
<path d="M576 87.5C576 96.0604 537.496 103 490 103C442.504 103 404 96.0604 404 87.5C404 78.9396 442.504 72 490 72C537.496 72 576 78.9396 576 87.5Z" fill="#CACACA"/>
<path d="M384.729 1122.43C347.894 1182.99 293.076 1214.37 262.289 1192.53C231.503 1170.7 236.405 1103.9 273.24 1043.35C310.075 982.795 364.893 951.409 395.68 973.247C426.467 995.085 421.564 1061.88 384.729 1122.43Z" fill="#D9D9D9"/>
<path d="M185.532 623.549C126.134 714.701 53.5854 770.125 23.4909 747.342C-6.60356 724.56 17.1521 632.197 76.5506 541.045C135.949 449.893 208.497 394.469 238.592 417.252C268.686 440.034 244.931 532.397 185.532 623.549Z" fill="#D9D9D9"/>
<path d="M577.809 1119.82C543.784 1057.37 541.937 990.402 573.684 970.23C605.43 950.058 658.749 984.325 692.773 1046.77C726.798 1109.21 728.645 1176.18 696.899 1196.35C665.152 1216.52 611.834 1182.26 577.809 1119.82Z" fill="#D9D9D9"/>
<path d="M773 613.5C773 767.864 646.297 893 490 893C333.703 893 207 767.864 207 613.5C207 459.136 333.703 334 490 334C646.297 334 773 459.136 773 613.5Z" fill="#595959"/>
<path d="M850 504.5C850 598.665 689.046 675 490.5 675C291.954 675 131 598.665 131 504.5C131 410.335 291.954 334 490.5 334C689.046 334 850 410.335 850 504.5Z" fill="#595959"/>
<path d="M464 239H516V334H464V239Z" fill="#A6A2A2"/>
<path d="M7.99972 1130.8C5.23846 1130.77 3.02379 1128.5 3.05313 1125.74L3.56045 1078C3.58979 1075.24 5.85202 1073.02 8.61329 1073.05L14.8711 1073.12C17.6323 1073.15 19.847 1075.41 19.8177 1078.17L19.3103 1125.92C19.281 1128.68 17.0188 1130.89 14.2575 1130.86L7.99972 1130.8Z" fill="#D9D9D9"/>
<path d="M75.9997 1130.8C73.2385 1130.77 71.0238 1128.5 71.0531 1125.74L71.5604 1078C71.5898 1075.24 73.852 1073.02 76.6133 1073.05L82.8711 1073.12C85.6323 1073.15 87.847 1075.41 87.8177 1078.17L87.3103 1125.92C87.281 1128.68 85.0188 1130.89 82.2575 1130.86L75.9997 1130.8Z" fill="#D9D9D9"/>
<path d="M104.871 1105.84C102.303 1106.86 99.3981 1105.6 98.3833 1103.03L80.8376 1058.62C79.8228 1056.06 81.0821 1053.15 83.6504 1052.14L89.4706 1049.84C92.0388 1048.82 94.9434 1050.08 95.9582 1052.65L113.504 1097.06C114.519 1099.62 113.259 1102.53 110.691 1103.54L104.871 1105.84Z" fill="#D9D9D9"/>
<path d="M30.9997 1130.8C28.2385 1130.77 26.0238 1128.5 26.0531 1125.74L26.5604 1078C26.5898 1075.24 28.852 1073.02 31.6133 1073.05L37.8711 1073.12C40.6323 1073.15 42.847 1075.41 42.8177 1078.17L42.3103 1125.92C42.281 1128.68 40.0188 1130.89 37.2575 1130.86L30.9997 1130.8Z" fill="#D9D9D9"/>
<path d="M52.9997 1130.8C50.2385 1130.77 48.0238 1128.5 48.0531 1125.74L48.5604 1078C48.5898 1075.24 50.852 1073.02 53.6133 1073.05L59.8711 1073.12C62.6323 1073.15 64.847 1075.41 64.8177 1078.17L64.3103 1125.92C64.281 1128.68 62.0188 1130.89 59.2575 1130.86L52.9997 1130.8Z" fill="#D9D9D9"/>
<path d="M0 1042C0 1027.64 11.6406 1016 26 1016H73C87.3594 1016 99 1027.64 99 1042V1064C99 1078.36 87.3594 1090 73 1090H26C11.6406 1090 0 1078.36 0 1064V1042Z" fill="#D0CFCF"/>
</svg>
